<?xml version="1.0" encoding="utf-8"?>
<svg xmlns="http://www.w3.org/2000/svg" width="31mm" height="31mm" viewBox="0 0 31 31" class="segno"><path class="qrline" stroke="#000" d="M1 1.5h7m2 0h1m1 0h1m3 0h1m1 0h4m1 0h7m-29 1h1m5 0h1m5 0h2m1 0h2m1 0h1m1 0h1m1 0h1m5 0h1m-29 1h1m1 0h3m1 0h1m2 0h2m1 0h1m4 0h1m2 0h1m1 0h1m1 0h3m1 0h1m-29 1h1m1 0h3m1 0h1m2 0h2m3 0h1m3 0h1m3 0h1m1 0h3m1 0h1m-29 1h1m1 0h3m1 0h1m3 0h3m1 0h3m1 0h1m3 0h1m1 0h3m1 0h1m-29 1h1m5 0h1m1 0h1m2 0h2m2 0h5m2 0h1m5 0h1m-29 1h7m1 0h1m1 0h1m1 0h1m1 0h1m1 0h1m1 0h1m1 0h1m1 0h7m-20 1h4m1 0h2m1 0h4m-21 1h1m2 0h1m1 0h2m1 0h2m3 0h2m1 0h1m2 0h1m1 0h1m1 0h1m-24 1h1m1 0h1m1 0h1m4 0h2m2 0h1m2 0h1m3 0h3m2 0h1m2 0h1m-29 1h2m2 0h1m1 0h1m2 0h5m3 0h1m1 0h1m1 0h2m2 0h3m-24 1h2m1 0h1m1 0h3m1 0h3m2 0h1m1 0h2m1 0h2m1 0h2m-27 1h2m3 0h1m1 0h1m2 0h2m1 0h2m1 0h2m1 0h3m2 0h1m1 0h2m-29 1h1m1 0h1m1 0h1m2 0h1m1 0h1m1 0h1m7 0h3m-21 1h2m3 0h3m1 0h3m9 0h1m1 0h5m-22 1h3m2 0h2m1 0h1m1 0h2m1 0h1m2 0h1m1 0h1m1 0h1m-27 1h1m2 0h3m3 0h5m2 0h2m1 0h2m5 0h1m-26 1h1m2 0h1m3 0h1m2 0h1m1 0h1m1 0h3m1 0h4m1 0h1m2 0h1m-29 1h1m3 0h3m1 0h2m2 0h2m3 0h1m3 0h1m1 0h2m2 0h2m-27 1h3m2 0h1m3 0h3m1 0h1m1 0h2m1 0h1m1 0h3m2 0h2m-29 1h1m3 0h1m1 0h1m1 0h3m3 0h3m3 0h5m1 0h1m-19 1h1m1 0h1m1 0h2m3 0h4m3 0h1m1 0h3m-29 1h7m2 0h2m1 0h3m3 0h1m1 0h1m1 0h1m1 0h1m2 0h1m-28 1h1m5 0h1m1 0h2m1 0h3m1 0h2m3 0h1m3 0h3m1 0h1m-29 1h1m1 0h3m1 0h1m2 0h1m1 0h1m2 0h1m2 0h2m1 0h5m2 0h2m-29 1h1m1 0h3m1 0h1m1 0h1m1 0h3m1 0h1m1 0h1m1 0h1m1 0h1m1 0h1m1 0h4m-28 1h1m1 0h3m1 0h1m5 0h2m3 0h1m6 0h3m1 0h1m-29 1h1m5 0h1m2 0h2m1 0h1m1 0h5m1 0h2m1 0h2m2 0h1m-28 1h7m1 0h3m1 0h1m2 0h1m1 0h1m2 0h2m2 0h1m2 0h1"/></svg>
